<svg xmlns="http://www.w3.org/2000/svg" viewBox="0 0 600 1000">
  <!-- Placeholder silhouette. Replace by adding public/me.png (transparent background). -->
  <defs>
    <linearGradient id="body" x1="0" y1="0" x2="0" y2="1">
      <stop offset="0" stop-color="#1c1f2b"/>
      <stop offset="1" stop-color="#07080d"/>
    </linearGradient>
    <linearGradient id="rim" x1="0" y1="0" x2="1" y2="0">
      <stop offset="0" stop-color="#ff3b3b" stop-opacity=".9"/>
      <stop offset=".35" stop-color="#ff3b3b" stop-opacity="0"/>
      <stop offset=".65" stop-color="#ff3b3b" stop-opacity="0"/>
      <stop offset="1" stop-color="#ff6a4d" stop-opacity=".8"/>
    </linearGradient>
    <filter id="soft"><feGaussianBlur stdDeviation="3"/></filter>
  </defs>
  <g id="fig">
    <path d="M300 120c62 0 104 50 104 122 0 52-18 96-44 124l-6 38c62 12 118 26 156 52 38 26 54 70 62 130l28 414H0l28-414c8-60 24-104 62-130 38-26 94-40 156-52l-6-38c-26-28-44-72-44-124 0-72 42-122 104-122Z" fill="url(#body)"/>
    <path d="M246 404l54 150 54-150" fill="none" stroke="#2a2e3d" stroke-width="10"/>
    <path d="M300 460l-18 40 18 150 18-150Z" fill="#c8102e"/>
  </g>
  <path d="M300 120c62 0 104 50 104 122 0 52-18 96-44 124l-6 38c62 12 118 26 156 52 38 26 54 70 62 130l28 414H0l28-414c8-60 24-104 62-130 38-26 94-40 156-52l-6-38c-26-28-44-72-44-124 0-72 42-122 104-122Z" fill="none" stroke="url(#rim)" stroke-width="6" filter="url(#soft)"/>
</svg>
